**ABCDEFGHIJKLMNOPQRSTUVWXYZabcdefghijklmnopqrstuvwxyz**************************
**PARASOLID !"#$%&'()*+,-./:;<=>?@[\]^_`{|}~0123456789**************************
**PART1;
MC=AMD64;
MC_MODEL=Intel64 Family 6 Model 58 Stepping 9, GenuineIntel;
MC_ID=unknown;
OS=Windows_NT;
OS_RELEASE=unknown;
FRU=Parasolid Version 25.1, build 198,  6-19-2013;
APPL=SolidWorks 2014-2013262;
SITE=;
USER=unknown;
FORMAT=text;
GUISE=transmit;
KEY=makeProjectedPlanarWire;
FILE=makeProjectedPlanarWire.x_t;
DATE=Sun Mar 30 03:45:29 2014;
**PART2;
SCH=SCH_2501198_25001;
USFLD_SIZE=0;
**PART3;
**END_OF_HEADER*****************************************************************
T51 : TRANSMIT FILE created by modeller version 250119823 SCH_2501198_25001_1300
6189 0 12 29 CCCCCCCCCCCCCDI5 owner1040 0 CCCCCCCCCA16 index_map_offset0 0 1 dA9
 index_map82 0 A17 node_id_index_map82 0 A20 schema_embedding_map82 0 A5 child12
 0 A14 lowest_node_id0 0 1 dZ1 284 0 0 0 0 0 0 1e3 1e-8 0 2 0 1 0 3 1 3 4 5 6 7
 8 9 0 0 0 0 0 0 13 255 3 46 0 1 0 10 0 0 7 10 50 255 4 2 0 10 0 0 0 +.012583808
51415992 -.0332375608952494 .002444442937671665 .3532405166219275 -.933012701892
221 .0686180408088963 .935217004140116 .35407506996001 0 30 255 5 29 0 8 11 0 0
 +.01258380851415992 -.0380931809084564 -.0635783565255393 .935532542147345 .352
2890695760755 -.0259089567630469 29 255 6 44 0 9 12 0 .1006069397947754 -.004946
72621769396 -.066016099094347 19 8 CCCCCCCA5 owner12 0 Z7 45 0 1 0 0 3 V0 16 255
 8 28 0 ?13 0 14 5 0 0 1 18 255 9 42 0 15 0 16 6 ?1 17 255 15 0 0 0 0 9 17 18 0
 13 -18 16 39 0 19 9 20 12 ?1 17 19 0 21 13 22 16 23 14 0 24 +18 20 36 0 22 16 2
5 26 ?1 29 12 41 0 16 26 6 .0685984818646786 -.017 -.0651296459618251 29 26 38 0
 20 27 12 .063657982926438 -.017 -.03969632876504565 29 27 35 0 25 0 26 .1006069
397947754 -.003086305873363205 -.04071960575736075 18 25 33 0 17 20 0 27 ?1 17 1
7 0 21 22 13 25 15 18 0 28 +15 255 21 7 0 17 10 0 17 22 0 21 19 17 20 28 29 0 23
 +17 13 0 21 17 19 9 24 8 0 0 +16 18 13 0 ?17 29 30 31 0 0 1 17 28 0 0 0 0 25 22
 29 0 0 -16 29 18 0 ?22 14 18 32 0 0 1 16 14 23 0 ?19 8 29 11 0 0 1 30 32 19 0 2
9 31 11 0 +.01258380851415992 -.03623276056412565 -.03828186318855305 -.93553254
2147345 -.3522890695760755 .025908956763047 30 31 14 0 18 33 32 0 +.100606939794
7754 -911062044869834e-19 670036886395251e-20 837164388675548e-32 .0733465034272
309 .997306517794303 30 11 24 0 14 32 5 0 +.0539125034350355 -.017 .010472667167
9468 .190688599624416 929635508958568e-33 -.98165057834918 31 255 33 9 0 30 0 31
 0 +.0888414461422413 -.00839711431703002 -.0523638128741115 .3532405166219275 -
.933012701892221 .0686180408088963 .935217004140116 .35407506996001 0 .006 16 30
 8 0 ?34 18 0 33 0 0 1 17 34 0 0 0 0 0 35 30 0 0 +17 35 0 36 35 35 0 34 30 0 0 -
15 36 6 0 35 10 21 14 255 10 1 0 ?0 0 36 3 4 +0 0 0 0 3 17 24 0 0 0 0 16 13 8 0
 0 -17 23 0 0 0 0 20 19 14 0 0 -1 0 
